<svg id="Vrstva_1" data-name="Vrstva 1" xmlns="http://www.w3.org/2000/svg" viewBox="0 0 378.38 292.6"><defs><style>.cls-1,.cls-2{fill:#1e1e1c;}.cls-1{fill-rule:evenodd;}.cls-3{fill:#1d1e1b;}</style></defs><path class="cls-1" d="M122.75,57.34c8.64-1,16.11,2.55,24.16,4.12a48,48,0,0,1,22.6,15.33c3.14,2.36,7.27,5.3,7.66,9.43.79,4.12,3.54,7.27,4.91,11,1.18,3.54,2.95,8.45,7.47,8.84,4.13,1.18,7.46,4.32,12,4.72,4.92-2,10.61,0,15.92.39,7.66-2.56,14.73-7.27,22-11.4,10-4.32,19.46,2,27.9,6.1,2.36,1.76,5.7,3.33,6.68,6.28l-.59.59C279.34,119,286,125.51,289.36,133v1c-.79.2-1.18-.59-2-.78,1,2.75,2.75,5.69,2.16,9a18.54,18.54,0,0,0-2.55-3.34c1.18,4.52,2.94,9.24,2.55,14.35h-.39c-1.18-2.17-2-4.33-4.13-5.9,1.18,3.93,4.91,7.07,4.33,11.59-3.34-3.14-5.11-7.46-8.45-10.8.19,1.37,1.37,2.75,1.37,4.32-2.55-.39-4.91-3-6.08-5.3-3.35-8.85-12.78-11.2-20.05-14.54-1.57-.59-3.14-1.77-4.91-1-1.57.59-3-.19-4.52-.19L243,132.78c-8.45,1-17.49,1-25,4.72-1.38,1.37-1,3.53-1.77,5.3-4.52,3.54-5.31,9-10.22,12.38-2.16,1.37-2.55,4.12-4.71,5.31-.2-1.58,0-2.76-.2-4.33-.59,1.18-1.38,2.16-1.18,3.54.19.39.79,0,.79.59-1.58.2-2.75-1.18-3.54-2.36-1.18-3.34.59-8.64-3.34-10.8l-2.75.58a4.72,4.72,0,0,1,1,7.67c-.39-.2-.59.19-.59.39v.2a.19.19,0,0,0-.19-.2c-1.18.78-2.56,1-3.54,2.16.79.39,2,.2,2.55.79-1,1-2.94,1-4.32,1a41.33,41.33,0,0,1-14.93,3.14c-.39.59,0,.79-.19,1.57,1,0,2.35.2,2.94-1,.2.4-.19,1-.39,1.38A3.4,3.4,0,0,1,169.9,166c-2.16-.4-3.54-3.54-6.29-2.76a50.67,50.67,0,0,1-22-2.94,1.58,1.58,0,0,1-1-1c-.2-3.14,2-5.3,3.53-7.66,5.51-6.68,10-13.55,12.77-21.21-.58-.4-1.18.39-1.57,0,.2.58-.58.19-.78.58-1.38-.39-3.34-.39-3.74-2.35-.19-.59.4-2.17-.78-2.17a1.74,1.74,0,0,1-2-1.17c-.59-1,.39-3.15-1.37-2.95-2-1.18.19-4.32-2.56-4.72-1.37-2.16-2-4.71-3.93-6.87a18,18,0,0,0-2.35-10.61c-.59-.79-.2-1.38-.4-2.36-2-1.38-4.52-2.75-5.3-5.11l1.37-.59c-4.32-.59-5.89-6.09-10-6.87-4.32-5.7-12.37-3.74-16.7-9.43,0-1,1.57-.59,2.16-1-2-1.18-4.32-1.77-5.69-3.73.39-.59,1.57-.2,1.37-1.18-2-1.18-4.32-2-5.89-3.73-.59-1,.59-.79,1.18-1,3-.39,5.3,1.18,8.05,1.38-3-1.77-6.88-2.36-8.64-5.89-.4-.59.39-1,1-1,5.5.4,10.22,3,15.33,3.74a24,24,0,0,1-12-6.88c2.55,0,4.91.79,7.47,1C114.5,55,118.82,57.14,122.75,57.34Z"/><path class="cls-2" d="M182.9,234.68a.66.66,0,0,1,.08.62,1.55,1.55,0,0,1-1,.7h5.17a2.62,2.62,0,0,1-1.45-1.28l-.08-.12-5.2-8H177a2,2,0,0,1,1,.67l.05.09-.06.08-4.7,7.19a2.89,2.89,0,0,1-1.53,1.36h4.2a1.46,1.46,0,0,1-.93-.7.59.59,0,0,1,.07-.57l1.16-1.83h5.55Zm-6.13-2.57,2.28-3.53,2.24,3.53Z"/><path class="cls-2" d="M189.74,234.36c-.27,0-1.16.07-1.16.94a1,1,0,0,0,1.18,1c.55,0,1.2-.25,1.2-1S190.2,234.36,189.74,234.36Z"/><path class="cls-2" d="M201.25,230.18c-1.8-.34-3.21-.6-3.21-1.5s1.19-1.5,3-1.5,3.63.2,4.43,1.67V226.9h-.08l-.45,0-.27,0h-.08a9,9,0,0,0-3.5-.6c-2.81,0-5.64.82-5.64,2.64s2.51,2.26,4.71,2.68c1.94.36,3.78.71,3.78,1.92s-1.87,1.85-3.71,1.85-4.28-.36-5.12-2.06v1.81a12.54,12.54,0,0,0,5.15,1c3.11,0,6.24-.89,6.24-2.88C206.53,231.16,203.6,230.61,201.25,230.18Z"/><path class="cls-2" d="M209.42,234.36c-.27,0-1.16.07-1.16.94a1,1,0,0,0,1.17,1c.56,0,1.21-.25,1.21-1S209.87,234.36,209.42,234.36Z"/><path class="cls-3" d="M74,185.25c.73-1.72-1.3-3.28-3.12-3.81v-.66H84L96.59,204.1l12.21-23.32h13v.66c-1.86.57-3.92,1.88-3.23,3.69l7.2,20c1.49,4.07,3.39,5.18,4.85,5.63v.61H116.69v-.61c2.38-.33,2.83-1.89,2-4.15l-7.28-19.29-12.86,24H92.34l-12.82-24.1L72.16,206.6c-.77,2.06-.77,3.49,1.78,4.11v.61H62.21v-.61c2.1-.33,3.4-1.56,4.57-5Z"/><path class="cls-3" d="M159.06,203.2H145.15l-2.87,4.59c-.89,1.36.93,2.51,2.63,2.92v.61H132.17v-.61c2.75-.21,4-2.46,4.93-3.9l12-18.56a5,5,0,0,0-3-1.72v-.66h9.95L169.62,207c.85,1.32,2,3.53,4.85,3.7v.61H159.11v-.61c1.61-.37,3.68-1.52,2.71-3Zm-12-2.92h10.19l-5.05-8.09Z"/><path class="cls-3" d="M190,185.87v.66a2.94,2.94,0,0,0-2.67,3.2v17.94c0,.62,0,.78.2.82h13.83c1.91,0,3.6-1.72,4.41-3.45h.65l-1.62,6.28h-27.5v-.61a2.85,2.85,0,0,0,2.55-2.92V189.73a2.88,2.88,0,0,0-2.55-3.2v-.66Z"/><path class="cls-3" d="M219.36,197.32h9.34c1,0,1.78-1.19,2.15-2.5h.64v7.8h-.72c-.21-1.27-1-2.46-2-2.46h-9.38v7.35c0,1.88,1,2.79,2.71,3.2v.61H209.33v-.61a3.36,3.36,0,0,0,2.51-3.74V189.73a2.82,2.82,0,0,0-2.51-3.2l0-.66h26.13a2.22,2.22,0,0,0,1.25-.41h.57l-.85,6.16h-.61c-.08-1.19-.65-2.79-2-2.79h-14.4Z"/><path class="cls-3" d="M254.26,185.87v.66a2.94,2.94,0,0,0-2.67,3.2v18.06c0,1.65,1,2.55,2.67,2.92v.61h-12.7v-.69c1.58-.33,2.55-1.19,2.55-2.84V189.73a2.88,2.88,0,0,0-2.55-3.2v-.66Z"/><path class="cls-3" d="M295.75,211.32h-5.5l-22.36-18.51v15c0,1.65,1,2.55,2.63,2.92v.61h-11v-.69c1.61-.33,2.71-1.19,2.71-2.84V189.36a3.17,3.17,0,0,0-2.71-2.83v-.66h9.7L290.13,203V189.4c0-1.6-1.09-2.5-2.67-2.87v-.66h10.92v.66c-1.61.37-2.63,1.27-2.63,2.87Z"/><path class="cls-3" d="M316.17,185.87v.66a2.94,2.94,0,0,0-2.67,3.2v18.06c0,1.65,1.06,2.55,2.67,2.92v.61h-12.7v-.69c1.58-.33,2.55-1.19,2.55-2.84V189.73a2.88,2.88,0,0,0-2.55-3.2v-.66Z"/></svg>